#!OML:ASF X:\für Bonn\!DataBase\2005_08_12_Daniel\c3d\Daniel.ASF
:FULLY-SPECIFIED
:DEGREES
16
root 3.9721 17.0625 1.3708 -163.76 -85.5635 159.347
lowerback 26.9551 -0.0479248 1.55126
upperback 7.56845 -0.647516 -3.2315
thorax -6.5295 -0.607106 -4.22738
lowerneck -0.467915 0.670924 -0.800252
upperneck 1.65412 0.915992 -1.29351
head 0.579107 0.440457 -0.255167
rclavicle 8.54774e-015 1.74931e-014
rhumerus -24.8746 15.4512 -100.874
rradius 48.8603
rwrist 16.0942
rhand -22.6495 10.264
rfingers 7.12502
rthumb 3.78158 340.318
lclavicle 8.54774e-015 1.74931e-014
lhumerus -204.04 192.998 -80.3814
lradius 53.2599
lwrist 10.4086
lhand -15.6951 5.20456
lfingers 7.12502
lthumb 10.4943 34.9226
rfemur -6.90252 4.94692 10.0003
rtibia 31.3298
rfoot 331.704 -22.372
rtoes -10.1172
lfemur -15.4548 -11.7951 -17.6937
ltibia 39.7215
lfoot -22.7181 2.00701
ltoes 0.898558
17
root 3.98633 17.0614 1.41927 -164.377 -85.1593 160.009
lowerback 27.283 0.112462 1.44531
upperback 7.61693 -0.497179 -3.33301
thorax -6.62301 -0.542181 -4.33023
lowerneck -0.300574 0.669421 -0.813877
upperneck 2.00653 0.912384 -1.15273
head 0.658439 0.436866 -0.210445
rclavicle -7.55382e-015 -2.62396e-014
rhumerus -24.4063 15.2752 -100.856
rradius 48.6918
rwrist 16.7614
rhand -23.0752 10.0702
rfingers 7.12502
rthumb 3.37049 340.117
lclavicle -7.55382e-015 -2.62396e-014
lhumerus -203.827 193.112 -80.38
lradius 53.0019
lwrist 10.8571
lhand -15.7282 5.40677
lfingers 7.12502
lthumb 10.4624 35.1264
rfemur -7.46303 4.31356 9.54686
rtibia 31.7274
rfoot 332.696 -21.8505
rtoes -10.5498
lfemur -15.5146 -11.7508 -17.953
ltibia 39.7646
lfoot -22.8547 2.35902
ltoes 0.9898
18
root 4.00036 17.061 1.46561 -165.1 -84.7416 160.778
lowerback 27.5899 0.286823 1.32485
upperback 7.68489 -0.335241 -3.42837
thorax -6.68273 -0.471786 -4.42238
lowerneck -0.152948 0.668706 -0.772688
upperneck 2.37809 0.909333 -1.06111
head 0.747778 0.433251 -0.18943
rclavicle 6.36111e-015 1.19271e-014
rhumerus -23.9284 15.111 -100.826
rradius 48.5599
rwrist 17.4657
rhand -23.4839 9.88219
rfingers 7.12502
rthumb 2.97576 339.923
lclavicle 6.36111e-015 1.19271e-014
lhumerus -203.583 193.268 -80.3773
lradius 52.756
lwrist 11.4105
lhand -15.7957 5.61715
lfingers 7.12502
lthumb 10.3972 35.3401
rfemur -8.03771 3.73377 9.12811
rtibia 32.1359
rfoot 333.727 -21.3261
rtoes -10.7969
lfemur -15.5658 -11.7117 -18.1845
ltibia 39.8022
lfoot -22.985 2.70602
ltoes 1.14904
19
root 4.01389 17.0603 1.51023 -165.412 -84.3601 161.146
lowerback 27.8798 0.439186 1.18345
upperback 7.74016 -0.206661 -3.52059
thorax -6.75091 -0.417051 -4.48912
lowerneck -0.0116556 0.682627 -0.782826
upperneck 2.80814 0.924475 -0.935149
head 0.85614 0.437937 -0.149291
rclavicle -3.57812e-015 1.35174e-014
rhumerus -23.4816 14.9804 -100.805
rradius 48.4331
rwrist 18.1516
rhand -23.9424 9.75002
rfingers 7.12502
rthumb 2.533 339.785
lclavicle -3.57812e-015 1.35174e-014
lhumerus -203.384 193.386 -80.3649
lradius 52.5784
lwrist 11.9823
lhand -15.8967 5.8898
lfingers 7.12502
lthumb 10.2998 35.6176
rfemur -8.61659 3.19059 8.71508
rtibia 32.5566
rfoot 334.666 -20.7963
rtoes -11.0799
lfemur -15.6413 -11.6628 -18.426
ltibia 39.8315
lfoot -23.1025 3.02727
ltoes 1.24073
20
root 4.02447 17.061 1.55208 -165.858 -84.0355 161.637
lowerback 28.166 0.581815 1.07335
upperback 7.79971 -0.0816993 -3.59931
thorax -6.81207 -0.364069 -4.55871
lowerneck 0.104547 0.686507 -0.733697
upperneck 3.26942 0.925806 -0.857092
head 0.979468 0.43544 -0.133308
rclavicle -7.55382e-015 5.08889e-014
rhumerus -23.0589 14.8453 -100.757
rradius 48.3426
rwrist 18.8304
rhand -24.4071 9.61128
rfingers 7.12502
rthumb 2.08419 339.642
lclavicle -7.55382e-015 5.08889e-014
lhumerus -203.162 193.576 -80.3381
lradius 52.3733
lwrist 12.5948
lhand -16.0386 6.23845
lfingers 7.12502
lthumb 10.1629 35.973
rfemur -9.14588 2.71703 8.36301
rtibia 32.9689
rfoot 335.516 -20.2923
rtoes -11.2192
lfemur -15.6864 -11.6527 -18.6275
ltibia 39.8386
lfoot -23.1933 3.34226
ltoes 1.36295
21
root 4.03298 17.0637 1.59009 -165.871 -83.7641 161.729
lowerback 28.3571 0.714324 0.928534
upperback 7.88595 0.0200858 -3.68593
thorax -6.79927 -0.320754 -4.60761
lowerneck 0.219936 0.695767 -0.654067
upperneck 3.69822 0.932322 -0.76404
head 1.09347 0.436492 -0.117718
rclavicle 3.97569e-015 7.15625e-015
rhumerus -22.5956 14.7206 -100.725
rradius 48.2247
rwrist 19.5438
rhand -25.0206 9.5672
rfingers 7.12502
rthumb 1.49169 339.593
lclavicle 3.97569e-015 7.15625e-015
lhumerus -202.943 193.82 -80.3189
lradius 52.2465
lwrist 13.2176
lhand -16.2628 6.60778
lfingers 7.12502
lthumb 9.94663 36.3528
rfemur -9.68034 2.25664 8.01855
rtibia 33.3799
rfoot 336.3 -19.9004
rtoes -11.568
lfemur -15.7741 -11.6452 -18.8225
ltibia 39.8285
lfoot -23.2738 3.57312
ltoes 1.50158
22
root 4.03892 17.0661 1.62539 -165.766 -83.536 161.693
lowerback 28.5125 0.829528 0.770257
upperback 7.9942 0.0966289 -3.75784
thorax -6.74682 -0.289154 -4.62286
lowerneck 0.315083 0.711371 -0.562388
upperneck 4.13445 0.947321 -0.709851
head 1.2141 0.441439 -0.115816
rclavicle -5.56597e-015 -2.94201e-014
rhumerus -22.1333 14.6181 -100.676
rradius 48.155
rwrist 20.269
rhand -25.6416 9.54501
rfingers 7.12502
rthumb 0.89191 339.567
lclavicle -5.56597e-015 -2.94201e-014
lhumerus -202.69 194.068 -80.3047
lradius 52.1267
lwrist 13.8452
lhand -16.5244 6.97361
lfingers 7.12502
lthumb 9.69422 36.7305
rfemur -10.1789 1.80166 7.68004
rtibia 33.7808
rfoot 337.06 -19.4636
rtoes -11.6442
lfemur -15.8376 -11.6903 -19.0231
ltibia 39.7977
lfoot -23.3278 3.84324
ltoes 1.70325
